<?xml version="1.0" encoding="UTF-8" standalone="no"?>
<!-- Created with Inkscape (http://www.inkscape.org/) -->

<svg
   xmlns:dc="http://purl.org/dc/elements/1.1/"
   xmlns:cc="http://creativecommons.org/ns#"
   xmlns:rdf="http://www.w3.org/1999/02/22-rdf-syntax-ns#"
   xmlns:svg="http://www.w3.org/2000/svg"
   xmlns="http://www.w3.org/2000/svg"
   xmlns:sodipodi="http://sodipodi.sourceforge.net/DTD/sodipodi-0.dtd"
   xmlns:inkscape="http://www.inkscape.org/namespaces/inkscape"
   width="950"
   height="600"
   viewBox="0 0 950.00001 600.00001"
   id="svg4138"
   version="1.1"
   inkscape:version="0.91 r13725"
   sodipodi:docname="drawing.svg"
   inkscape:export-filename="/home/mirza/Desktop/bg.png"
   inkscape:export-xdpi="36"
   inkscape:export-ydpi="36">
  <defs
     id="defs4140">
    <filter
       inkscape:collect="always"
       style="color-interpolation-filters:sRGB"
       id="filter4707"
       x="-0.036"
       width="1.072"
       y="-0.036"
       height="1.072">
      <feGaussianBlur
         inkscape:collect="always"
         stdDeviation="1.9315723"
         id="feGaussianBlur4709" />
    </filter>
    <filter
       inkscape:collect="always"
       style="color-interpolation-filters:sRGB"
       id="filter4208"
       x="-0.019058824"
       width="1.0381176"
       y="-0.032399999"
       height="1.0648">
      <feGaussianBlur
         inkscape:collect="always"
         stdDeviation="6.7500002"
         id="feGaussianBlur4210" />
    </filter>
  </defs>
  <sodipodi:namedview
     id="base"
     pagecolor="#ffffff"
     bordercolor="#666666"
     borderopacity="1.0"
     inkscape:pageopacity="0.0"
     inkscape:pageshadow="2"
     inkscape:zoom="0.5"
     inkscape:cx="415.35757"
     inkscape:cy="273.58155"
     inkscape:document-units="px"
     inkscape:current-layer="layer1"
     showgrid="false"
     units="px"
     inkscape:snap-bbox="true"
     inkscape:bbox-paths="true"
     inkscape:bbox-nodes="true"
     inkscape:snap-bbox-edge-midpoints="true"
     inkscape:snap-page="true"
     inkscape:window-width="1280"
     inkscape:window-height="800"
     inkscape:window-x="0"
     inkscape:window-y="0"
     inkscape:window-maximized="1"
     inkscape:snap-bbox-midpoints="true" />
  <metadata
     id="metadata4143">
    <rdf:RDF>
      <cc:Work
         rdf:about="">
        <dc:format>image/svg+xml</dc:format>
        <dc:type
           rdf:resource="http://purl.org/dc/dcmitype/StillImage" />
        <dc:title />
      </cc:Work>
    </rdf:RDF>
  </metadata>
  <g
     inkscape:label="Layer 1"
     inkscape:groupmode="layer"
     id="layer1"
     transform="translate(0,-452.36214)">
    <rect
       style="opacity:0.64;fill:#000000;fill-opacity:1;stroke:none;filter:url(#filter4208)"
       id="rect4623"
       width="850"
       height="500.00003"
       x="55"
       y="507.36212" />
    <rect
       style="opacity:1;fill:#eeeeee;fill-opacity:1;stroke:none"
       id="rect4146"
       width="850"
       height="128.77148"
       x="50"
       y="502.36212" />
    <rect
       y="631.13361"
       x="50"
       height="371.22855"
       width="850"
       id="rect4148"
       style="opacity:1;fill:#fafafa;fill-opacity:1;stroke:none" />
    <rect
       y="-365.60715"
       x="699.26691"
       height="3.2142856"
       width="234.96194"
       id="rect4154"
       style="opacity:1;fill:#e0e0e0;fill-opacity:1;stroke:none"
       transform="matrix(0,1,-1,0,0,0)" />
    <g
       transform="matrix(4.2428598,0,0,4.2428598,85.111753,-42.096996)"
       style="font-style:normal;font-variant:normal;font-weight:300;font-stretch:normal;font-size:40px;line-height:125%;font-family:Roboto;-inkscape-font-specification:'Roboto, Light';text-align:start;letter-spacing:0px;word-spacing:0px;writing-mode:lr-tb;text-anchor:start;fill:#424242;fill-opacity:1;stroke:none;stroke-width:1px;stroke-linecap:butt;stroke-linejoin:miter;stroke-opacity:1"
       id="flowRoot4190">
      <path
         d="m 17.03125,207.47982 4.433594,0 0,1.97265 -4.433594,0 0,7.1875 -2.34375,0 0,-7.1875 -13.3789063,0 0,-1.32812 13.1640623,-19.92188 2.558594,0 0,19.27735 z m -12.8515625,0 10.5078125,0 0,-16.25 -1.035156,1.79687 -9.4726565,14.45313 z"
         id="path4199"
         inkscape:connector-curvature="0"
         style="fill:#424242" />
      <path
         d="m 38.652344,187.98763 0,2.05078 -0.273438,0 q -5.097656,0 -8.027343,3.00781 -2.929688,2.98829 -3.242188,8.32032 1.171875,-1.6211 2.988281,-2.5 1.816406,-0.89844 4.0625,-0.89844 3.75,0 5.957032,2.59766 2.226562,2.57812 2.226562,6.75781 0,2.77344 -1.035156,5 -1.035156,2.22656 -2.96875,3.47656 -1.933594,1.23047 -4.414063,1.23047 -4.082031,0 -6.640625,-2.94922 -2.558594,-2.96875 -2.558594,-7.65625 l 0,-2.34375 q 0,-7.63672 3.476563,-11.81641 3.476562,-4.19921 9.863281,-4.27734 l 0.585938,0 z m -4.863282,11.99219 q -2.226562,0 -4.160156,1.32812 -1.914062,1.3086 -2.558593,3.33985 l 0,1.99218 q 0,3.71094 1.894531,6.05469 1.914062,2.34375 4.960937,2.34375 2.734375,0 4.414063,-2.16797 1.699219,-2.16797 1.699219,-5.46875 0,-3.35937 -1.699219,-5.39062 -1.679688,-2.03125 -4.550782,-2.03125 z"
         id="path4201"
         inkscape:connector-curvature="0"
         style="fill:#424242" />
      <path
         d="m 56.679687,192.69466 q 0,2.03125 -1.386718,3.41797 -1.386719,1.38672 -3.339844,1.38672 -1.972656,0 -3.378906,-1.38672 -1.40625,-1.40625 -1.40625,-3.41797 0,-2.01172 1.425781,-3.4375 1.425781,-1.44531 3.359375,-1.44531 1.933594,0 3.320313,1.44531 1.406249,1.42578 1.406249,3.4375 z m -7.753906,0 q 0,1.3086 0.859375,2.16797 0.878906,0.85938 2.167969,0.85938 1.289063,0 2.128906,-0.85938 0.839844,-0.85937 0.839844,-2.16797 0,-1.34765 -0.839844,-2.22656 -0.839843,-0.87891 -2.128906,-0.87891 -1.269531,0 -2.148438,0.87891 -0.878906,0.87891 -0.878906,2.22656 z"
         id="path4203"
         inkscape:connector-curvature="0"
         style="fill:#424242" />
    </g>
    <g
       transform="translate(89.071068,542.58681)"
       style="font-style:normal;font-variant:normal;font-weight:normal;font-stretch:normal;font-size:50px;line-height:125%;font-family:Roboto;-inkscape-font-specification:'Roboto, Normal';text-align:start;letter-spacing:0px;word-spacing:0px;writing-mode:lr-tb;text-anchor:start;fill:#424242;fill-opacity:1;stroke:none;stroke-width:1px;stroke-linecap:butt;stroke-linejoin:miter;stroke-opacity:1"
       id="flowRoot4205">
      <path
         d="m 362.82715,186.93815 -23.29102,0 0,-3.24707 12.30469,-13.67187 q 2.73438,-3.10059 3.75977,-5.0293 1.0498,-1.95313 1.0498,-4.02832 0,-2.7832 -1.68457,-4.56543 -1.68457,-1.78223 -4.49219,-1.78223 -3.36914,0 -5.24902,1.92871 -1.85547,1.9043 -1.85547,5.32227 l -4.5166,0 q 0,-4.90723 3.14941,-7.93457 3.17383,-3.02735 8.47168,-3.02735 4.95606,0 7.83692,2.61231 2.88086,2.58789 2.88086,6.90918 0,5.24902 -6.68946,12.5 l -9.52148,10.32715 17.84668,0 0,3.68652 z"
         style=""
         id="path4755" />
      <path
         d="m 374.22852,166.96745 3.39355,0 q 3.19824,-0.0488 5.0293,-1.68457 1.83105,-1.63574 1.83105,-4.41895 0,-6.25 -6.22558,-6.25 -2.92969,0 -4.6875,1.68457 -1.7334,1.66016 -1.7334,4.41895 l -4.5166,0 q 0,-4.22363 3.07617,-7.00684 3.10058,-2.80762 7.86133,-2.80762 5.02929,0 7.88574,2.66114 2.85644,2.66113 2.85644,7.39746 0,2.31933 -1.51367,4.49219 -1.48926,2.17285 -4.07715,3.24707 2.92969,0.92773 4.5166,3.07617 1.61133,2.14844 1.61133,5.24902 0,4.78516 -3.125,7.59278 -3.125,2.80761 -8.12988,2.80761 -5.00488,0 -8.1543,-2.70996 -3.125,-2.70996 -3.125,-7.15332 l 4.54102,0 q 0,2.80762 1.83105,4.49219 1.83106,1.68457 4.90723,1.68457 3.27148,0 5.00488,-1.70899 1.7334,-1.70898 1.7334,-4.90722 0,-3.10059 -1.9043,-4.76074 -1.90429,-1.66016 -5.49316,-1.70899 l -3.39355,0 0,-3.68652 z"
         style=""
         id="path4757" />
      <path
         d="m 395.39551,158.22721 q 0,-3.19824 2.02637,-5.27343 2.05078,-2.0752 5.24902,-2.0752 3.24707,0 5.24902,2.09961 2.02637,2.0752 2.02637,5.39551 l 0,1.7334 q 0,3.22265 -2.05078,5.27343 -2.02637,2.02637 -5.17578,2.02637 -3.17383,0 -5.24903,-2.02637 -2.07519,-2.05078 -2.07519,-5.44433 l 0,-1.70899 z m 3.36914,1.87989 q 0,1.90429 1.07422,3.14941 1.07422,1.2207 2.88086,1.2207 1.7334,0 2.7832,-1.19629 1.07422,-1.19628 1.07422,-3.27148 l 0,-1.78223 q 0,-1.90429 -1.04981,-3.14941 -1.0498,-1.24512 -2.85644,-1.24512 -1.80664,0 -2.85645,1.24512 -1.0498,1.24512 -1.0498,3.24707 l 0,1.78223 z m 13.94043,18.11523 q 0,-3.19824 2.02637,-5.24902 2.05078,-2.0752 5.24902,-2.0752 3.19824,0 5.24902,2.05078 2.05078,2.05078 2.05078,5.44434 l 0,1.7334 q 0,3.19824 -2.05078,5.27344 -2.02636,2.05078 -5.20019,2.05078 -3.17383,0 -5.24903,-2.02637 -2.07519,-2.05078 -2.07519,-5.44434 l 0,-1.75781 z m 3.36914,1.9043 q 0,1.92871 1.07422,3.17383 1.07422,1.2207 2.88086,1.2207 1.75781,0 2.80761,-1.19629 1.04981,-1.2207 1.04981,-3.2959 l 0,-1.80664 q 0,-1.92871 -1.07422,-3.14941 -1.0498,-1.22071 -2.83203,-1.22071 -1.7334,0 -2.83203,1.22071 -1.07422,1.19629 -1.07422,3.24707 l 0,1.80664 z m -12.3291,4.12597 -2.56348,-1.61132 17.3584,-27.78321 2.56348,1.61133 -17.3584,27.7832 z"
         style=""
         id="path4759" />
    </g>
    <g
       transform="translate(421.07107,542.58681)"
       style="font-style:normal;font-variant:normal;font-weight:normal;font-stretch:normal;font-size:50px;line-height:125%;font-family:Roboto;-inkscape-font-specification:'Roboto, Normal';text-align:start;letter-spacing:0px;word-spacing:0px;writing-mode:lr-tb;text-anchor:start;fill:#9e9e9e;fill-opacity:1;stroke:none;stroke-width:1px;stroke-linecap:butt;stroke-linejoin:miter;stroke-opacity:1"
       id="flowRoot4224">
      <path
         d="m 366.85547,175.65885 q -0.65918,5.63965 -4.17481,8.71582 -3.49121,3.05176 -9.30175,3.05176 -6.29883,0 -10.10743,-4.5166 -3.78418,-4.5166 -3.78418,-12.08496 l 0,-3.41797 q 0,-4.95605 1.75782,-8.71582 1.78222,-3.75976 5.02929,-5.76172 3.24707,-2.02637 7.51954,-2.02637 5.66406,0 9.08203,3.17383 3.41797,3.14942 3.97949,8.74024 l -4.71192,0 q -0.61035,-4.24805 -2.66113,-6.15235 -2.02637,-1.90429 -5.68847,-1.90429 -4.49219,0 -7.05567,3.32031 -2.53906,3.32031 -2.53906,9.44824 l 0,3.44238 q 0,5.78614 2.41699,9.20411 2.41699,3.41796 6.7627,3.41796 3.90625,0 5.98144,-1.75781 2.09961,-1.78222 2.7832,-6.17676 l 4.71192,0 z"
         style=""
         id="path4762" />
      <path
         d="m 377.91504,173.02214 0,13.91601 -4.6875,0 0,-35.54687 13.11035,0 q 5.83496,0 9.13086,2.97851 3.32031,2.97852 3.32031,7.88574 0,5.17579 -3.24707,7.9834 -3.22265,2.78321 -9.25293,2.78321 l -8.37402,0 z m 0,-3.83301 8.42285,0 q 3.75977,0 5.76172,-1.75781 2.00195,-1.78223 2.00195,-5.12696 0,-3.17383 -2.00195,-5.07812 -2.00195,-1.9043 -5.49316,-1.97754 l -8.69141,0 0,13.94043 z"
         style=""
         id="path4764" />
      <path
         d="m 429.79492,151.39128 0,24.16992 q -0.0244,5.02929 -3.17383,8.22754 -3.125,3.19824 -8.49609,3.58886 l -1.24512,0.0488 q -5.83496,0 -9.30175,-3.14941 -3.4668,-3.14942 -3.51563,-8.66699 l 0,-24.21875 4.63867,0 0,24.07226 q 0,3.85742 2.12403,6.00586 2.12402,2.12402 6.05468,2.12402 3.9795,0 6.0791,-2.12402 2.12403,-2.12402 2.12403,-5.98144 l 0,-24.09668 4.71191,0 z"
         style=""
         id="path4766" />
    </g>
    <rect
       style="opacity:1;fill:#e0e0e0;fill-opacity:1;stroke:none"
       id="rect4251"
       width="420"
       height="40"
       x="429"
       y="750.58667" />
    <g
       transform="translate(89.071068,692.03046)"
       style="font-style:normal;font-variant:normal;font-weight:normal;font-stretch:normal;font-size:50px;line-height:125%;font-family:Roboto;-inkscape-font-specification:'Roboto, Normal';text-align:start;letter-spacing:0px;word-spacing:0px;writing-mode:lr-tb;text-anchor:start;fill:#424242;fill-opacity:1;stroke:none;stroke-width:1px;stroke-linecap:butt;stroke-linejoin:miter;stroke-opacity:1"
       id="flowRoot4253">
      <path
         d="m 362.82715,186.93815 -23.29102,0 0,-3.24707 12.30469,-13.67187 q 2.73438,-3.10059 3.75977,-5.0293 1.0498,-1.95313 1.0498,-4.02832 0,-2.7832 -1.68457,-4.56543 -1.68457,-1.78223 -4.49219,-1.78223 -3.36914,0 -5.24902,1.92871 -1.85547,1.9043 -1.85547,5.32227 l -4.5166,0 q 0,-4.90723 3.14941,-7.93457 3.17383,-3.02735 8.47168,-3.02735 4.95606,0 7.83692,2.61231 2.88086,2.58789 2.88086,6.90918 0,5.24902 -6.68946,12.5 l -9.52148,10.32715 17.84668,0 0,3.68652 z"
         style=""
         id="path4776" />
      <path
         d="m 374.22852,166.96745 3.39355,0 q 3.19824,-0.0488 5.0293,-1.68457 1.83105,-1.63574 1.83105,-4.41895 0,-6.25 -6.22558,-6.25 -2.92969,0 -4.6875,1.68457 -1.7334,1.66016 -1.7334,4.41895 l -4.5166,0 q 0,-4.22363 3.07617,-7.00684 3.10058,-2.80762 7.86133,-2.80762 5.02929,0 7.88574,2.66114 2.85644,2.66113 2.85644,7.39746 0,2.31933 -1.51367,4.49219 -1.48926,2.17285 -4.07715,3.24707 2.92969,0.92773 4.5166,3.07617 1.61133,2.14844 1.61133,5.24902 0,4.78516 -3.125,7.59278 -3.125,2.80761 -8.12988,2.80761 -5.00488,0 -8.1543,-2.70996 -3.125,-2.70996 -3.125,-7.15332 l 4.54102,0 q 0,2.80762 1.83105,4.49219 1.83106,1.68457 4.90723,1.68457 3.27148,0 5.00488,-1.70899 1.7334,-1.70898 1.7334,-4.90722 0,-3.10059 -1.9043,-4.76074 -1.90429,-1.66016 -5.49316,-1.70899 l -3.39355,0 0,-3.68652 z"
         style=""
         id="path4778" />
      <path
         d="m 402.35352,166.96745 3.39355,0 q 3.19824,-0.0488 5.0293,-1.68457 1.83105,-1.63574 1.83105,-4.41895 0,-6.25 -6.22558,-6.25 -2.92969,0 -4.6875,1.68457 -1.7334,1.66016 -1.7334,4.41895 l -4.5166,0 q 0,-4.22363 3.07617,-7.00684 3.10058,-2.80762 7.86133,-2.80762 5.02929,0 7.88574,2.66114 2.85644,2.66113 2.85644,7.39746 0,2.31933 -1.51367,4.49219 -1.48926,2.17285 -4.07715,3.24707 2.92969,0.92773 4.5166,3.07617 1.61133,2.14844 1.61133,5.24902 0,4.78516 -3.125,7.59278 -3.125,2.80761 -8.12988,2.80761 -5.00488,0 -8.1543,-2.70996 -3.125,-2.70996 -3.125,-7.15332 l 4.54102,0 q 0,2.80762 1.83105,4.49219 1.83106,1.68457 4.90723,1.68457 3.27148,0 5.00488,-1.70899 1.7334,-1.70898 1.7334,-4.90722 0,-3.10059 -1.9043,-4.76074 -1.90429,-1.66016 -5.49316,-1.70899 l -3.39355,0 0,-3.68652 z"
         style=""
         id="path4780" />
      <path
         d="m 443.54004,151.39128 11.62109,29.0039 11.6211,-29.0039 6.0791,0 0,35.54687 -4.6875,0 0,-13.84277 0.43945,-14.94141 -11.66992,28.78418 -3.58887,0 -11.64551,-28.71094 0.46387,14.86817 0,13.84277 -4.6875,0 0,-35.54687 6.05469,0 z"
         style=""
         id="path4782" />
      <path
         d="m 485.33691,186.93815 -4.5166,0 0,-26.41601 4.5166,0 0,26.41601 z M 480.4541,153.5153 q 0,-1.09863 0.65918,-1.85547 0.6836,-0.75684 2.00195,-0.75684 1.31836,0 2.00196,0.75684 0.68359,0.75684 0.68359,1.85547 0,1.09863 -0.68359,1.83105 -0.6836,0.73243 -2.00196,0.73243 -1.31835,0 -2.00195,-0.73243 -0.65918,-0.73242 -0.65918,-1.83105 z"
         style=""
         id="path4784" />
      <path
         d="m 493.24707,186.93815 0,-35.54687 11.62109,0 q 5.78614,0 8.69141,2.39257 2.92969,2.39258 2.92969,7.08008 0,2.49024 -1.41602,4.41895 -1.41601,1.90429 -3.85742,2.9541 2.88086,0.80566 4.54102,3.07617 1.68457,2.24609 1.68457,5.37109 0,4.78516 -3.10059,7.51954 -3.10059,2.73437 -8.76465,2.73437 l -12.3291,0 z m 4.6875,-16.62598 0,12.79297 7.73926,0 q 3.27148,0 5.15137,-1.68457 1.90429,-1.70898 1.90429,-4.6875 0,-6.4209 -6.98242,-6.4209 l -7.8125,0 z m 0,-3.75976 7.08008,0 q 3.07617,0 4.90723,-1.53809 1.85546,-1.53808 1.85546,-4.1748 0,-2.92969 -1.70898,-4.24805 -1.70898,-1.34277 -5.2002,-1.34277 l -6.93359,0 0,11.30371 z"
         style=""
         id="path4786" />
    </g>
    <g
       transform="translate(409.75736,692.03046)"
       style="font-style:normal;font-variant:normal;font-weight:normal;font-stretch:normal;font-size:50px;line-height:125%;font-family:Roboto;-inkscape-font-specification:'Roboto, Normal';text-align:start;letter-spacing:0px;word-spacing:0px;writing-mode:lr-tb;text-anchor:start;fill:#9e9e9e;fill-opacity:1;stroke:none;stroke-width:1px;stroke-linecap:butt;stroke-linejoin:miter;stroke-opacity:1"
       id="flowRoot4261">
      <path
         d="m 353.74512,172.55827 -8.34961,0 0,14.37988 -4.71192,0 0,-35.54687 11.76758,0 q 6.00586,0 9.22852,2.73437 3.24707,2.73438 3.24707,7.95899 0,3.32031 -1.80664,5.78613 -1.78223,2.46582 -4.98047,3.68652 l 8.34961,15.08789 0,0.29297 -5.0293,0 -7.71484,-14.37988 z m -8.34961,-3.83301 7.20215,0 q 3.49121,0 5.54199,-1.80664 2.07519,-1.80664 2.07519,-4.83398 0,-3.2959 -1.97754,-5.05372 -1.95312,-1.75781 -5.66406,-1.78222 l -7.17773,0 0,13.47656 z"
         style=""
         id="path4789" />
      <path
         d="m 391.09863,177.66081 -14.89258,0 -3.34472,9.27734 -4.83399,0 13.57422,-35.54687 4.10157,0 13.59863,35.54687 -4.80957,0 -3.39356,-9.27734 z m -13.47656,-3.85742 12.08496,0 -6.05469,-16.62598 -6.03027,16.62598 z"
         style=""
         id="path4791" />
      <path
         d="m 410.1416,151.39128 11.6211,29.0039 11.62109,-29.0039 6.0791,0 0,35.54687 -4.6875,0 0,-13.84277 0.43945,-14.94141 -11.66992,28.78418 -3.58887,0 -11.6455,-28.71094 0.46386,14.86817 0,13.84277 -4.6875,0 0,-35.54687 6.05469,0 z"
         style=""
         id="path4793" />
    </g>
    <rect
       y="900.03033"
       x="429"
       height="40"
       width="420"
       id="rect4269"
       style="opacity:1;fill:#e0e0e0;fill-opacity:1;stroke:none" />
    <g
       transform="matrix(0.80107125,0,0,0.78451019,221.39549,95.721893)"
       style="font-style:normal;font-variant:normal;font-weight:normal;font-stretch:normal;font-size:102.09779358px;line-height:125%;font-family:Roboto;-inkscape-font-specification:'Roboto, Normal';text-align:start;letter-spacing:0px;word-spacing:0px;writing-mode:lr-tb;text-anchor:start;fill:#424242;fill-opacity:1;stroke:none;stroke-width:1px;stroke-linecap:butt;stroke-linejoin:miter;stroke-opacity:1"
       id="flowRoot4394">
      <path
         d="m 421.06109,605.74193 q 0,16.20204 -5.53362,24.07872 -5.53362,7.87669 -17.29879,7.87669 -11.61562,0 -17.19909,-7.67728 -5.58348,-7.72712 -5.78289,-23.03182 l 0,-12.31355 q 0,-16.00264 5.53362,-23.77962 5.53362,-7.77698 17.34865,-7.77698 11.71532,0 17.24895,7.52772 5.53362,7.47787 5.68317,23.13153 l 0,11.96459 z m -9.2227,-12.61267 q 0,-11.71532 -3.29026,-17.04953 -3.29026,-5.38407 -10.41916,-5.38407 -7.07904,0 -10.31945,5.33421 -3.24041,5.33421 -3.34012,16.40146 l 0,14.75632 q 0,11.76517 3.38997,17.3985 3.43982,5.58347 10.36931,5.58347 6.82978,0 10.12004,-5.28436 3.34011,-5.28436 3.48967,-16.65071 l 0,-15.10529 z"
         style=""
         id="path4740" />
      <path
         d="m 469.1687,564.06529 0,7.82683 -1.69499,0 q -10.76812,0.19941 -17.14924,6.38111 -6.38111,6.18171 -7.37816,17.3985 5.73303,-6.58052 15.65367,-6.58052 9.47196,0 15.10529,6.68023 5.68317,6.68023 5.68317,17.24894 0,11.2168 -6.13185,17.94688 -6.08199,6.73008 -16.35159,6.73008 -10.41916,0 -16.89998,-7.97639 -6.48082,-8.02624 -6.48082,-20.63891 l 0,-3.53952 q 0,-20.04068 8.52477,-30.6094 8.57462,-10.61857 25.47459,-10.86783 l 1.64514,0 z m -12.11415,32.7032 q -4.73598,0 -8.72417,2.84159 -3.9882,2.84159 -5.53362,7.1289 l 0,3.38996 q 0,8.97344 4.03804,14.45721 4.03805,5.48377 10.0702,5.48377 6.23155,0 9.77107,-4.58643 3.58938,-4.58642 3.58938,-12.01444 0,-7.47786 -3.63923,-12.06429 -3.58937,-4.63627 -9.57167,-4.63627 z"
         style=""
         id="path4742" />
      <path
         d="m 491.05391,631.8646 q 0,-2.39291 1.39587,-3.98819 1.44572,-1.59528 4.28731,-1.59528 2.84159,0 4.28731,1.59528 1.49558,1.59528 1.49558,3.98819 0,2.29322 -1.49558,3.83864 -1.44572,1.54543 -4.28731,1.54543 -2.84159,0 -4.28731,-1.54543 -1.39587,-1.54542 -1.39587,-3.83864 z m 0.0499,-44.0197 q 0,-2.39292 1.39587,-3.98819 1.44572,-1.59528 4.2873,-1.59528 2.84159,0 4.28731,1.59528 1.49558,1.59527 1.49558,3.98819 0,2.29321 -1.49558,3.83864 -1.44572,1.54542 -4.28731,1.54542 -2.84158,0 -4.2873,-1.54542 -1.39587,-1.54543 -1.39587,-3.83864 z"
         style=""
         id="path4744" />
      <path
         d="m 519.3701,600.30801 3.68908,-36.19287 37.18992,0 0,8.52477 -29.36309,0 -2.19351,19.79142 q 5.33421,-3.14071 12.11415,-3.14071 9.92063,0 15.75337,6.58052 5.83273,6.53067 5.83273,17.69762 0,11.2168 -6.082,17.69761 -6.03214,6.43097 -16.89997,6.43097 -9.62152,0 -15.70352,-5.33421 -6.082,-5.33421 -6.92949,-14.75632 l 8.72418,0 q 0.84749,6.23155 4.43686,9.42211 3.58938,3.1407 9.47197,3.1407 6.43096,0 10.07019,-4.38701 3.68908,-4.38702 3.68908,-12.11415 0,-7.27845 -3.9882,-11.66547 -3.93834,-4.43686 -10.51886,-4.43686 -6.03214,0 -9.47196,2.64218 l -2.44277,1.99409 -7.37816,-1.89439 z"
         style=""
         id="path4746" />
      <path
         d="m 618.07792,605.74193 q 0,16.20204 -5.53362,24.07872 -5.53362,7.87669 -17.29879,7.87669 -11.61562,0 -17.19909,-7.67728 -5.58348,-7.72712 -5.78289,-23.03182 l 0,-12.31355 q 0,-16.00264 5.53362,-23.77962 5.53362,-7.77698 17.34865,-7.77698 11.71532,0 17.24895,7.52772 5.53362,7.47787 5.68317,23.13153 l 0,11.96459 z m -9.2227,-12.61267 q 0,-11.71532 -3.29026,-17.04953 -3.29026,-5.38407 -10.41916,-5.38407 -7.07904,0 -10.31945,5.33421 -3.24041,5.33421 -3.34012,16.40146 l 0,14.75632 q 0,11.76517 3.38997,17.3985 3.43982,5.58347 10.36931,5.58347 6.82978,0 10.12004,-5.28436 3.34012,-5.28436 3.48967,-16.65071 l 0,-15.10529 z"
         style=""
         id="path4748" />
      <path
         d="m 664.59025,607.13779 0,29.5625 -6.13185,0 0,-72.58515 24.72681,0 q 11.3165,0 17.84717,5.78288 6.58053,5.78289 6.58053,15.90293 0,10.21975 -6.33126,15.80322 -6.28141,5.53362 -18.246,5.53362 l -18.4454,0 z m 0,-5.18465 18.59496,0 q 8.92359,0 13.60972,-4.23746 4.68613,-4.23745 4.68613,-11.81502 0,-7.52772 -4.68613,-11.96459 -4.63628,-4.48672 -13.2109,-4.58642 l -18.99378,0 0,32.60349 z"
         style="font-style:normal;font-variant:normal;font-weight:300;font-stretch:normal;font-size:102.09779358px;line-height:125%;font-family:Roboto;-inkscape-font-specification:'Roboto, Light';text-align:start;writing-mode:lr-tb;text-anchor:start;fill:#424242"
         id="path4750" />
      <path
         d="m 729.39841,564.11514 26.77075,64.06038 26.87047,-64.06038 8.1758,0 0,72.58515 -6.13185,0 0,-31.60645 0.49852,-32.40408 -27.02002,64.01053 -4.73598,0 -26.92032,-63.76127 0.49853,31.95541 0,31.80586 -6.13185,0 0,-72.58515 8.12595,0 z"
         style="font-style:normal;font-variant:normal;font-weight:300;font-stretch:normal;font-size:102.09779358px;line-height:125%;font-family:Roboto;-inkscape-font-specification:'Roboto, Light';text-align:start;writing-mode:lr-tb;text-anchor:start;fill:#424242"
         id="path4752" />
    </g>
    <rect
       y="503.36212"
       x="51"
       height="128.77148"
       width="128.77148"
       id="rect4661"
       style="opacity:0.64;fill:#000000;fill-opacity:1;stroke:none;filter:url(#filter4707)" />
    <rect
       style="opacity:1;fill:#00b8d4;fill-opacity:1;stroke:none"
       id="rect4404"
       width="128.77148"
       height="128.77148"
       x="50"
       y="502.36212" />
    <g
       style="fill:#000000;fill-opacity:0.25098039"
       id="g5040"
       transform="matrix(8.721433,0,0,8.721433,82.50001,-8573.4728)">
      <path
         style="opacity:1;fill:#000000;fill-opacity:0.25098039;stroke:none"
         d="m 0,1044.3622 2,0 0,2 -2,0 z"
         id="path5042"
         inkscape:connector-curvature="0" />
      <path
         style="opacity:1;fill:#000000;fill-opacity:0.25098039;stroke:none"
         d="m 3,1044.3622 2,0 0,2 -2,0 z"
         id="path5044"
         inkscape:connector-curvature="0" />
      <path
         style="opacity:1;fill:#000000;fill-opacity:0.25098039;stroke:none"
         d="m 6,1044.3622 2,0 0,2 -2,0 z"
         id="path5046"
         inkscape:connector-curvature="0" />
      <path
         style="opacity:1;fill:#000000;fill-opacity:0.25098039;stroke:none"
         d="m 0,1047.3622 2,0 0,2 -2,0 z"
         id="path5048"
         inkscape:connector-curvature="0" />
      <path
         style="opacity:1;fill:#000000;fill-opacity:0.25098039;stroke:none"
         d="m 3,1047.3622 2,0 0,2 -2,0 z"
         id="path5050"
         inkscape:connector-curvature="0" />
      <path
         style="opacity:1;fill:#000000;fill-opacity:0.25098039;stroke:none"
         d="m 6,1047.3622 2,0 0,2 -2,0 z"
         id="path5052"
         inkscape:connector-curvature="0" />
      <path
         style="opacity:1;fill:#000000;fill-opacity:0.25098039;stroke:none"
         d="m 0,1050.3622 2,0 0,2 -2,0 z"
         id="path5054"
         inkscape:connector-curvature="0" />
      <path
         style="opacity:1;fill:#000000;fill-opacity:0.25098039;stroke:none"
         d="m 3,1050.3622 2,0 0,2 -2,0 z"
         id="path5056"
         inkscape:connector-curvature="0" />
      <path
         style="opacity:1;fill:#000000;fill-opacity:0.25098039;stroke:none"
         d="m 6,1050.3622 2,0 0,2 -2,0 z"
         id="path5058"
         inkscape:connector-curvature="0" />
    </g>
    <g
       transform="matrix(8.721433,0,0,8.721433,79.50001,-8576.4728)"
       id="g4987"
       style="fill:#fafafa">
      <path
         inkscape:connector-curvature="0"
         id="rect4956"
         d="m 0,1044.3622 2,0 0,2 -2,0 z"
         style="opacity:1;fill:#fafafa;fill-opacity:1;stroke:none" />
      <path
         inkscape:connector-curvature="0"
         id="rect4962"
         d="m 3,1044.3622 2,0 0,2 -2,0 z"
         style="opacity:1;fill:#fafafa;fill-opacity:1;stroke:none" />
      <path
         inkscape:connector-curvature="0"
         id="rect4964"
         d="m 6,1044.3622 2,0 0,2 -2,0 z"
         style="opacity:1;fill:#fafafa;fill-opacity:1;stroke:none" />
      <path
         inkscape:connector-curvature="0"
         id="rect4966"
         d="m 0,1047.3622 2,0 0,2 -2,0 z"
         style="opacity:1;fill:#fafafa;fill-opacity:1;stroke:none" />
      <path
         inkscape:connector-curvature="0"
         id="rect4968"
         d="m 3,1047.3622 2,0 0,2 -2,0 z"
         style="opacity:1;fill:#fafafa;fill-opacity:1;stroke:none" />
      <path
         inkscape:connector-curvature="0"
         id="rect4970"
         d="m 6,1047.3622 2,0 0,2 -2,0 z"
         style="opacity:1;fill:#fafafa;fill-opacity:1;stroke:none" />
      <path
         inkscape:connector-curvature="0"
         id="rect4972"
         d="m 0,1050.3622 2,0 0,2 -2,0 z"
         style="opacity:1;fill:#fafafa;fill-opacity:1;stroke:none" />
      <path
         inkscape:connector-curvature="0"
         id="rect4974"
         d="m 3,1050.3622 2,0 0,2 -2,0 z"
         style="opacity:1;fill:#fafafa;fill-opacity:1;stroke:none" />
      <path
         inkscape:connector-curvature="0"
         id="rect4976"
         d="m 6,1050.3622 2,0 0,2 -2,0 z"
         style="opacity:1;fill:#fafafa;fill-opacity:1;stroke:none" />
    </g>
    <rect
       y="750.58667"
       x="429"
       height="40"
       width="420"
       id="rect5060"
       style="opacity:1;fill:#e0e0e0;fill-opacity:1;stroke:none" />
    <flowRoot
       xml:space="preserve"
       id="flowRoot4795"
       style="fill:black;stroke:none;stroke-opacity:1;stroke-width:1px;stroke-linejoin:miter;stroke-linecap:butt;fill-opacity:1;font-family:sans-serif;font-style:normal;font-weight:normal;font-size:40px;line-height:125%;letter-spacing:0px;word-spacing:0px"><flowRegion
         id="flowRegion4797" /><flowPara
         id="flowPara4801" /></flowRoot>  </g>
</svg>
